<?xml version="1.0" encoding="utf-8"?>
<!-- Generator: Adobe Illustrator 22.0.1, SVG Export Plug-In . SVG Version: 6.00 Build 0)  -->
<svg version="1.1" id="Layer_1" xmlns="http://www.w3.org/2000/svg" xmlns:xlink="http://www.w3.org/1999/xlink" x="0px" y="0px"
	 viewBox="0 0 721 359" style="enable-background:new 0 0 721 359;" xml:space="preserve">
<style type="text/css">
	.st0{fill:#010101;}
	.st1{fill:#231F20;}
</style>
<g>
	<g>
		<path class="st0" d="M72.8,158v-49.5h16.6c2.6,0,5,0.2,7.2,0.6s4.1,1.1,5.7,2c1.6,1,2.9,2.2,3.8,3.8s1.4,3.5,1.4,5.9
			c0,1.1-0.2,2.2-0.5,3.3c-0.3,1.1-0.8,2.2-1.6,3.1c-0.7,1-1.6,1.8-2.7,2.6c-1.1,0.8-2.3,1.3-3.8,1.7v0.3c3.5,0.7,6.2,1.9,8,3.8
			c1.8,1.9,2.7,4.5,2.7,7.8c0,2.5-0.5,4.7-1.4,6.5c-1,1.8-2.3,3.3-4,4.5c-1.7,1.2-3.7,2.1-6,2.7c-2.3,0.6-4.8,0.9-7.5,0.9H72.8z
			 M83.9,128.4h4.9c2.7,0,4.7-0.5,5.9-1.6c1.2-1.1,1.8-2.6,1.8-4.5c0-1.8-0.6-3.1-1.9-3.9c-1.2-0.8-3.2-1.2-5.8-1.2h-5V128.4z
			 M83.9,149.2h6c6,0,9-2.2,9-6.7c0-2.2-0.7-3.7-2.2-4.7c-1.4-1-3.7-1.4-6.8-1.4h-6V149.2z"/>
		<path class="st0" d="M118.3,158v-9.4h11.5v-30.7h-11.5v-9.4h34.3v9.4h-11.5v30.7h11.5v9.4H118.3z"/>
		<path class="st0" d="M163.3,158v-49.5h11.5l10.4,24.6l4.3,10.9h0.3c-0.3-2.6-0.6-5.6-1-8.8c-0.4-3.2-0.6-6.3-0.6-9.2v-17.5h10.7
			V158h-11.5l-10.4-24.7l-4.3-10.8h-0.3c0.3,2.7,0.6,5.7,1,8.8c0.4,3.1,0.6,6.2,0.6,9.1V158H163.3z"/>
		<path class="st0" d="M204.5,158l15.4-49.5h13.4l15.4,49.5h-11.8l-3-11.8h-15l-3,11.8H204.5z M222.3,132.9l-1.1,4.6h10.4l-1.1-4.6
			c-0.7-2.5-1.3-5.1-2-7.9c-0.7-2.8-1.3-5.5-1.9-8.1h-0.3c-0.6,2.6-1.2,5.3-1.9,8.1C223.7,127.8,223,130.4,222.3,132.9z"/>
		<path class="st0" d="M254.7,158v-49.5h17.5c2.6,0,5.1,0.3,7.4,0.8c2.3,0.5,4.3,1.4,6.1,2.5s3.1,2.8,4.1,4.7c1,2,1.5,4.4,1.5,7.4
			c0,3.6-0.8,6.6-2.4,9c-1.6,2.4-3.7,4.1-6.4,5.3l11.2,19.8h-12.5l-9.5-17.8h-5.8V158H254.7z M265.8,131.3h5.5c6,0,9-2.5,9-7.4
			c0-2.4-0.8-4.1-2.3-5.1c-1.5-1-3.8-1.4-6.8-1.4h-5.5V131.3z"/>
		<path class="st0" d="M312.1,158v-16.7l-15.9-32.8h12l5,11.9c0.7,1.9,1.4,3.8,2.2,5.6c0.8,1.8,1.5,3.7,2.3,5.7h0.3
			c0.8-2,1.6-3.9,2.4-5.7c0.8-1.8,1.5-3.7,2.3-5.6l5-11.9h11.7l-15.9,32.8V158H312.1z"/>
		<path class="st0" d="M391.3,158v-49.5h17.5c2.6,0,5.1,0.3,7.4,0.8c2.3,0.5,4.3,1.4,6.1,2.5s3.1,2.8,4.1,4.7s1.5,4.4,1.5,7.4
			c0,3.6-0.8,6.6-2.4,9c-1.6,2.4-3.7,4.1-6.4,5.3l11.2,19.8h-12.5l-9.5-17.8h-5.8V158H391.3z M402.5,131.3h5.5c6,0,9-2.5,9-7.4
			c0-2.4-0.8-4.1-2.3-5.1c-1.5-1-3.8-1.4-6.8-1.4h-5.5V131.3z"/>
		<path class="st0" d="M438.5,158v-49.5h32.8v9.4h-21.6v9.9h18.3v9.3h-18.3v11.4h22.3v9.4H438.5z"/>
		<path class="st0" d="M477.8,158l15.4-49.5h13.4L522,158h-11.8l-3-11.8h-15l-3,11.8H477.8z M495.6,132.9l-1.1,4.6h10.4l-1.1-4.6
			c-0.7-2.5-1.3-5.1-2-7.9c-0.7-2.8-1.3-5.5-1.9-8.1h-0.3c-0.6,2.6-1.2,5.3-1.9,8.1C496.9,127.8,496.3,130.4,495.6,132.9z"/>
		<path class="st0" d="M530.8,158v-49.5h11.2v40.1h22v9.4H530.8z"/>
		<path class="st0" d="M572.6,158v-49.5h11.7l4.9,17.5l1.7,6.8h0.3l1.7-6.8l4.9-17.5h11.7V158h-9.4v-15.3c0-1.4,0-3.1,0.2-5.2
			c0.1-2.1,0.2-4.2,0.4-6.4c0.2-2.2,0.3-4.3,0.5-6.3c0.2-2,0.3-3.7,0.4-5h-0.2l-3.8,13.2l-3.8,11.9h-5.5l-3.9-11.9l-3.6-13.2h-0.2
			c0.2,1.3,0.3,3,0.5,5c0.2,2,0.3,4.2,0.5,6.3c0.2,2.2,0.3,4.3,0.4,6.4c0.1,2.1,0.2,3.8,0.2,5.2V158H572.6z"/>
		<path class="st0" d="M636.4,158.9c-3.3,0-6.6-0.6-9.9-1.8s-6.2-3-8.9-5.4l6.5-7.7c1.9,1.5,3.9,2.8,6.1,3.7c2.2,1,4.6,1.4,7,1.4
			c2.4,0,4.2-0.4,5.3-1.2c1.1-0.8,1.7-1.8,1.7-3.1c0-0.9-0.2-1.6-0.5-2.2c-0.4-0.6-0.9-1.1-1.5-1.6c-0.7-0.5-1.5-0.9-2.4-1.3
			c-1-0.4-2-0.9-3.2-1.4l-6.4-2.7c-1.4-0.5-2.7-1.2-4-2c-1.3-0.8-2.4-1.8-3.4-2.8c-1-1.1-1.7-2.4-2.3-3.8c-0.6-1.4-0.9-3.1-0.9-4.9
			c0-2,0.4-3.9,1.3-5.7c0.9-1.8,2.1-3.4,3.7-4.7c1.6-1.3,3.5-2.4,5.7-3.2c2.2-0.8,4.7-1.1,7.4-1.1c3,0,6,0.6,8.8,1.7
			c2.8,1.1,5.4,2.7,7.7,4.9l-5.7,7.1c-1.7-1.3-3.4-2.2-5.2-2.9s-3.8-1-6.2-1c-1.9,0-3.4,0.4-4.5,1.1c-1.1,0.8-1.7,1.9-1.7,3.3
			c0,1.5,0.7,2.6,2.2,3.4c1.5,0.8,3.5,1.6,5.9,2.5l6,2.6c3.3,1.2,5.9,2.9,7.8,5c1.9,2.1,2.8,4.9,2.8,8.4c0,2.1-0.4,4-1.3,5.9
			c-0.9,1.8-2.1,3.5-3.7,4.9c-1.6,1.4-3.6,2.5-6,3.3C642.2,158.5,639.5,158.9,636.4,158.9z"/>
		<path class="st0" d="M72.5,249.1v-49.5h13.7c3.6,0,6.9,0.5,9.8,1.4c2.9,1,5.4,2.4,7.5,4.4c2.1,2,3.7,4.5,4.8,7.6
			c1.1,3.1,1.7,6.8,1.7,11s-0.6,7.9-1.7,11.1c-1.1,3.1-2.7,5.7-4.7,7.8c-2.1,2-4.5,3.6-7.3,4.6c-2.8,1-6,1.5-9.4,1.5H72.5z
			 M83.7,240h1.8c1.9,0,3.7-0.3,5.3-0.8c1.6-0.6,3-1.5,4.1-2.7s2-2.9,2.7-4.9s0.9-4.5,0.9-7.5c0-2.9-0.3-5.4-0.9-7.4
			c-0.6-2-1.5-3.6-2.7-4.8c-1.1-1.2-2.5-2-4.1-2.5c-1.6-0.5-3.4-0.8-5.3-0.8h-1.8V240z"/>
		<path class="st0" d="M113.4,249.1l15.4-49.5h13.4l15.4,49.5h-11.8l-3-11.8h-15l-3,11.8H113.4z M131.2,224l-1.1,4.6h10.4l-1.1-4.6
			c-0.7-2.5-1.3-5.1-2.1-7.9c-0.7-2.8-1.3-5.5-1.9-8.1h-0.3c-0.6,2.6-1.2,5.3-1.9,8.1C132.6,218.9,131.9,221.5,131.2,224z"/>
		<path class="st0" d="M175.4,249.1V209h-14.8v-9.4h40.8v9.4h-14.8v40.1H175.4z"/>
		<path class="st0" d="M204.5,249.1l15.4-49.5h13.4l15.4,49.5h-11.8l-3-11.8h-15l-3,11.8H204.5z M222.3,224l-1.1,4.6h10.4l-1.1-4.6
			c-0.7-2.5-1.3-5.1-2-7.9c-0.7-2.8-1.3-5.5-1.9-8.1h-0.3c-0.6,2.6-1.2,5.3-1.9,8.1C223.7,218.9,223,221.5,222.3,224z"/>
		<path class="st0" d="M272.1,250c-2.6,0-4.8-0.8-6.4-2.5c-1.6-1.7-2.4-3.8-2.4-6.3c0-1.3,0.2-2.4,0.6-3.5c0.4-1.1,1-2,1.8-2.8
			c0.8-0.8,1.7-1.4,2.8-1.9c1.1-0.5,2.3-0.7,3.6-0.7s2.5,0.2,3.6,0.7c1.1,0.5,2,1.1,2.8,1.9c0.8,0.8,1.4,1.8,1.8,2.8
			c0.4,1.1,0.6,2.3,0.6,3.5c0,2.5-0.8,4.6-2.4,6.3C276.9,249.1,274.8,250,272.1,250z"/>
		<path class="st0" d="M301.8,249.1l-6.6-49.5h11.6l1.5,26.3c0,2.1,0.1,4.2,0.1,6.1c0,1.9,0.1,4.1,0.1,6.3h0.3
			c0.4-2.3,0.7-4.4,1.2-6.3c0.4-1.9,0.8-4,1.3-6.1l3.3-13.8h7.1l3.1,13.8c0.4,2.1,0.8,4.1,1.2,6.1c0.4,2,0.8,4.1,1.2,6.4h0.3
			c0-2.3,0.1-4.4,0.1-6.4c0-2,0.1-4,0.2-6.1l1.4-26.3h10.9l-6.1,49.5h-12l-2.9-15.3c-0.3-1.6-0.6-3.2-0.8-4.8
			c-0.3-1.6-0.4-3.2-0.5-4.6h-0.2c-0.2,1.5-0.3,3-0.5,4.6c-0.2,1.6-0.5,3.2-0.8,4.8l-2.9,15.3H301.8z"/>
		<path class="st0" d="M341.1,249.1l15.4-49.5h13.4l15.4,49.5h-11.8l-3-11.8h-15l-3,11.8H341.1z M359,224l-1.1,4.6h10.4l-1.1-4.6
			c-0.7-2.5-1.3-5.1-2-7.9c-0.7-2.8-1.3-5.5-1.9-8.1h-0.3c-0.6,2.6-1.2,5.3-1.9,8.1C360.3,218.9,359.6,221.5,359,224z"/>
		<path class="st0" d="M391.3,249.1v-49.5h17.5c2.6,0,5.1,0.3,7.4,0.8c2.3,0.5,4.3,1.4,6.1,2.5c1.7,1.2,3.1,2.8,4.1,4.7
			s1.5,4.4,1.5,7.4c0,3.6-0.8,6.6-2.4,9c-1.6,2.4-3.7,4.1-6.4,5.3l11.2,19.8h-12.5l-9.5-17.8h-5.8v17.8H391.3z M402.5,222.4h5.5
			c6,0,9-2.5,9-7.4c0-2.4-0.8-4.1-2.3-5.1c-1.5-1-3.8-1.4-6.8-1.4h-5.5V222.4z"/>
		<path class="st0" d="M436.9,249.1v-49.5h17.5c2.6,0,5.1,0.3,7.4,0.8c2.3,0.5,4.3,1.4,6.1,2.5c1.7,1.2,3.1,2.8,4.1,4.7
			s1.5,4.4,1.5,7.4c0,3.6-0.8,6.6-2.4,9c-1.6,2.4-3.7,4.1-6.4,5.3l11.2,19.8h-12.5l-9.5-17.8H448v17.8H436.9z M448,222.4h5.5
			c6,0,9-2.5,9-7.4c0-2.4-0.8-4.1-2.3-5.1c-1.5-1-3.8-1.4-6.8-1.4H448V222.4z"/>
		<path class="st0" d="M482.7,249.1v-9.4h11.5V209h-11.5v-9.4H517v9.4h-11.5v30.7H517v9.4H482.7z"/>
		<path class="st0" d="M545.4,250c-2.9,0-5.6-0.6-8.1-1.7c-2.5-1.1-4.6-2.8-6.3-4.9c-1.7-2.2-3.1-4.9-4.1-8.1
			c-1-3.2-1.4-6.9-1.4-11.2c0-4.1,0.5-7.8,1.4-11c1-3.2,2.3-5.8,4.1-8s3.8-3.8,6.3-4.9c2.5-1.1,5.1-1.6,8.1-1.6
			c2.9,0,5.6,0.5,8.1,1.6c2.5,1.1,4.6,2.7,6.3,4.9s3.1,4.8,4.1,8c1,3.2,1.4,6.8,1.4,11c0,4.3-0.5,8-1.4,11.2c-1,3.2-2.3,5.9-4.1,8.1
			c-1.7,2.2-3.8,3.8-6.3,4.9C551.1,249.4,548.4,250,545.4,250z M545.4,240.3c2.6,0,4.6-1.4,6.1-4.1c1.5-2.7,2.3-6.8,2.3-12.1
			c0-5.2-0.8-9.1-2.3-11.8c-1.5-2.7-3.6-4-6.1-4s-4.6,1.3-6.1,4c-1.5,2.7-2.3,6.6-2.3,11.8c0,5.4,0.8,9.4,2.3,12.1
			C540.8,239,542.8,240.3,545.4,240.3z"/>
		<path class="st0" d="M573.5,249.1v-49.5h17.5c2.6,0,5.1,0.3,7.4,0.8c2.3,0.5,4.3,1.4,6.1,2.5c1.7,1.2,3.1,2.8,4.1,4.7
			s1.5,4.4,1.5,7.4c0,3.6-0.8,6.6-2.4,9c-1.6,2.4-3.7,4.1-6.4,5.3l11.2,19.8H600l-9.5-17.8h-5.8v17.8H573.5z M584.7,222.4h5.5
			c6,0,9-2.5,9-7.4c0-2.4-0.8-4.1-2.3-5.1c-1.5-1-3.8-1.4-6.8-1.4h-5.5V222.4z"/>
		<path class="st0" d="M636.4,250c-3.3,0-6.6-0.6-9.9-1.8s-6.2-3-8.9-5.4l6.5-7.7c1.9,1.5,3.9,2.8,6.1,3.7c2.2,1,4.6,1.4,7,1.4
			c2.4,0,4.2-0.4,5.3-1.2s1.7-1.8,1.7-3.1c0-0.9-0.2-1.6-0.5-2.2c-0.4-0.6-0.9-1.1-1.5-1.6c-0.7-0.5-1.5-0.9-2.4-1.3
			c-1-0.4-2-0.9-3.2-1.4l-6.4-2.7c-1.4-0.5-2.7-1.2-4-2c-1.3-0.8-2.4-1.8-3.4-2.8c-1-1.1-1.7-2.4-2.3-3.8c-0.6-1.4-0.9-3.1-0.9-4.9
			c0-2,0.4-3.9,1.3-5.7c0.9-1.8,2.1-3.4,3.7-4.7c1.6-1.3,3.5-2.4,5.7-3.2c2.2-0.8,4.7-1.1,7.4-1.1c3,0,6,0.6,8.8,1.7
			c2.8,1.1,5.4,2.7,7.7,4.9l-5.7,7.1c-1.7-1.3-3.4-2.2-5.2-2.9s-3.8-1-6.2-1c-1.9,0-3.4,0.4-4.5,1.1c-1.1,0.8-1.7,1.9-1.7,3.3
			c0,1.5,0.7,2.6,2.2,3.4c1.5,0.8,3.5,1.6,5.9,2.5l6,2.6c3.3,1.2,5.9,2.9,7.8,5c1.9,2.1,2.8,4.9,2.8,8.4c0,2.1-0.4,4-1.3,5.9
			c-0.9,1.8-2.1,3.5-3.7,4.9c-1.6,1.4-3.6,2.5-6,3.3C642.2,249.6,639.5,250,636.4,250z"/>
	</g>
	<g>
		<g>
			<polygon class="st1" points="721.5,358.5 709.5,358.5 709.5,350.5 713.5,350.5 713.5,346.5 721.5,346.5 			"/>
		</g>
		<g>
			<path class="st1" d="M693.3,358.5h-16.2v-8h16.2V358.5z M660.9,358.5h-16.2v-8h16.2V358.5z M628.5,358.5h-16.2v-8h16.2V358.5z
				 M596,358.5h-16.2v-8H596V358.5z M563.6,358.5h-16.2v-8h16.2V358.5z M531.2,358.5H515v-8h16.2V358.5z M498.8,358.5h-16.2v-8h16.2
				V358.5z M466.4,358.5h-16.2v-8h16.2V358.5z M433.9,358.5h-16.2v-8h16.2V358.5z M401.5,358.5h-16.2v-8h16.2V358.5z M369.1,358.5
				h-16.2v-8h16.2V358.5z M336.7,358.5h-16.2v-8h16.2V358.5z M304.3,358.5h-16.2v-8h16.2V358.5z M271.8,358.5h-16.2v-8h16.2V358.5z
				 M239.4,358.5h-16.2v-8h16.2V358.5z M207,358.5h-16.2v-8H207V358.5z M174.6,358.5h-16.2v-8h16.2V358.5z M142.2,358.5H126v-8h16.2
				V358.5z M109.8,358.5H93.5v-8h16.2V358.5z M77.3,358.5H61.1v-8h16.2V358.5z M44.9,358.5H28.7v-8h16.2V358.5z"/>
		</g>
		<g>
			<polygon class="st1" points="12.5,358.5 0.5,358.5 0.5,346.5 8.5,346.5 8.5,350.5 12.5,350.5 			"/>
		</g>
		<g>
			<path class="st1" d="M8.5,330.5h-8v-16h8V330.5z M8.5,298.6h-8v-16h8V298.6z M8.5,266.7h-8v-16h8V266.7z M8.5,234.8h-8v-16h8
				V234.8z M8.5,202.9h-8v-16h8V202.9z M8.5,171h-8v-16h8V171z M8.5,139.1h-8v-16h8V139.1z M8.5,107.2h-8v-16h8V107.2z M8.5,75.3h-8
				v-16h8V75.3z M8.5,43.4h-8v-16h8V43.4z"/>
		</g>
		<g>
			<polygon class="st1" points="8.5,11.5 0.5,11.5 0.5,-0.5 12.5,-0.5 12.5,7.5 8.5,7.5 			"/>
		</g>
		<g>
			<path class="st1" d="M693.3,7.5h-16.2v-8h16.2V7.5z M660.9,7.5h-16.2v-8h16.2V7.5z M628.5,7.5h-16.2v-8h16.2V7.5z M596,7.5h-16.2
				v-8H596V7.5z M563.6,7.5h-16.2v-8h16.2V7.5z M531.2,7.5H515v-8h16.2V7.5z M498.8,7.5h-16.2v-8h16.2V7.5z M466.4,7.5h-16.2v-8
				h16.2V7.5z M433.9,7.5h-16.2v-8h16.2V7.5z M401.5,7.5h-16.2v-8h16.2V7.5z M369.1,7.5h-16.2v-8h16.2V7.5z M336.7,7.5h-16.2v-8
				h16.2V7.5z M304.3,7.5h-16.2v-8h16.2V7.5z M271.8,7.5h-16.2v-8h16.2V7.5z M239.4,7.5h-16.2v-8h16.2V7.5z M207,7.5h-16.2v-8H207
				V7.5z M174.6,7.5h-16.2v-8h16.2V7.5z M142.2,7.5H126v-8h16.2V7.5z M109.8,7.5H93.5v-8h16.2V7.5z M77.3,7.5H61.1v-8h16.2V7.5z
				 M44.9,7.5H28.7v-8h16.2V7.5z"/>
		</g>
		<g>
			<polygon class="st1" points="721.5,11.5 713.5,11.5 713.5,7.5 709.5,7.5 709.5,-0.5 721.5,-0.5 			"/>
		</g>
		<g>
			<path class="st1" d="M721.5,330.5h-8v-16h8V330.5z M721.5,298.6h-8v-16h8V298.6z M721.5,266.7h-8v-16h8V266.7z M721.5,234.8h-8
				v-16h8V234.8z M721.5,202.9h-8v-16h8V202.9z M721.5,171h-8v-16h8V171z M721.5,139.1h-8v-16h8V139.1z M721.5,107.2h-8v-16h8V107.2
				z M721.5,75.3h-8v-16h8V75.3z M721.5,43.4h-8v-16h8V43.4z"/>
		</g>
	</g>
	<g>
		<path class="st1" d="M663.4,103H662v5.6h-1.8V103h-1.3v-1.3h4.4V103z M668.8,105.4L668.8,105.4l-1.1,3.2h-0.9l-1.1-3.5l-0.1,0v3.5
			h-1.6v-7h1.9l1.2,4.7h0.1l1.2-4.7h1.9v7h-1.6V105.4z"/>
	</g>
</g>
</svg>
